%TF.GenerationSoftware,KiCad,Pcbnew,8.0.1*%
%TF.CreationDate,2024-04-15T16:39:27+10:00*%
%TF.ProjectId,4x8x8 LED Matrix Clock,34783878-3820-44c4-9544-204d61747269,rev?*%
%TF.SameCoordinates,Original*%
%TF.FileFunction,Soldermask,Top*%
%TF.FilePolarity,Negative*%
%FSLAX46Y46*%
G04 Gerber Fmt 4.6, Leading zero omitted, Abs format (unit mm)*
G04 Created by KiCad (PCBNEW 8.0.1) date 2024-04-15 16:39:27*
%MOMM*%
%LPD*%
G01*
G04 APERTURE LIST*
G04 Aperture macros list*
%AMRoundRect*
0 Rectangle with rounded corners*
0 $1 Rounding radius*
0 $2 $3 $4 $5 $6 $7 $8 $9 X,Y pos of 4 corners*
0 Add a 4 corners polygon primitive as box body*
4,1,4,$2,$3,$4,$5,$6,$7,$8,$9,$2,$3,0*
0 Add four circle primitives for the rounded corners*
1,1,$1+$1,$2,$3*
1,1,$1+$1,$4,$5*
1,1,$1+$1,$6,$7*
1,1,$1+$1,$8,$9*
0 Add four rect primitives between the rounded corners*
20,1,$1+$1,$2,$3,$4,$5,0*
20,1,$1+$1,$4,$5,$6,$7,0*
20,1,$1+$1,$6,$7,$8,$9,0*
20,1,$1+$1,$8,$9,$2,$3,0*%
G04 Aperture macros list end*
%ADD10C,1.524000*%
%ADD11R,1.700000X1.700000*%
%ADD12O,1.700000X1.700000*%
%ADD13C,2.500000*%
%ADD14R,3.500000X3.500000*%
%ADD15RoundRect,0.750000X1.000000X-0.750000X1.000000X0.750000X-1.000000X0.750000X-1.000000X-0.750000X0*%
%ADD16RoundRect,0.875000X0.875000X-0.875000X0.875000X0.875000X-0.875000X0.875000X-0.875000X-0.875000X0*%
%ADD17R,1.308000X1.308000*%
%ADD18C,1.308000*%
%ADD19O,2.460000X1.230000*%
%ADD20R,1.508000X1.508000*%
%ADD21C,1.508000*%
%ADD22C,1.400000*%
%ADD23O,1.400000X1.400000*%
G04 APERTURE END LIST*
D10*
%TO.C,U1*%
X155035000Y-99465000D03*
X155035000Y-96925000D03*
X155035000Y-94385000D03*
X155035000Y-91845000D03*
X155035000Y-89305000D03*
X155035000Y-86765000D03*
X155035000Y-84225000D03*
X155035000Y-81685000D03*
X155035000Y-79145000D03*
X155035000Y-76605000D03*
X155035000Y-74065000D03*
X155035000Y-71525000D03*
X162655000Y-71525000D03*
X165195000Y-71525000D03*
X167735000Y-71525000D03*
X170275000Y-71525000D03*
X170275000Y-74065000D03*
X170275000Y-76605000D03*
X170275000Y-79145000D03*
X170275000Y-81685000D03*
X170275000Y-84225000D03*
X170275000Y-86765000D03*
X170275000Y-89305000D03*
X170275000Y-91845000D03*
X170275000Y-94385000D03*
X170275000Y-96925000D03*
X170275000Y-99465000D03*
X169005000Y-102005000D03*
X166465000Y-102005000D03*
X163925000Y-102005000D03*
X161385000Y-102005000D03*
X158845000Y-102005000D03*
X156305000Y-102005000D03*
X167735000Y-88035000D03*
X167735000Y-90575000D03*
%TD*%
D11*
%TO.C,J8*%
X229433200Y-108813600D03*
D12*
X226893200Y-108813600D03*
X224353200Y-108813600D03*
X221813200Y-108813600D03*
X219273200Y-108813600D03*
%TD*%
D13*
%TO.C,H3*%
X202800000Y-71200000D03*
%TD*%
D14*
%TO.C,J1*%
X179942500Y-69100000D03*
D15*
X179942500Y-75100000D03*
D16*
X175242500Y-72100000D03*
%TD*%
D13*
%TO.C,H4*%
X202800000Y-102850000D03*
%TD*%
D11*
%TO.C,J5*%
X163372800Y-63093600D03*
D12*
X160832800Y-63093600D03*
X158292800Y-63093600D03*
X155752800Y-63093600D03*
X153212800Y-63093600D03*
%TD*%
%TO.C,J6*%
X186227800Y-108813600D03*
X188767800Y-108813600D03*
X191307800Y-108813600D03*
X193847800Y-108813600D03*
D11*
X196387800Y-108813600D03*
%TD*%
D17*
%TO.C,S1*%
X192900000Y-76100000D03*
D18*
X192900000Y-74100000D03*
X192900000Y-72100000D03*
D19*
X192900000Y-78300000D03*
X192900000Y-69900000D03*
%TD*%
D20*
%TO.C,S3*%
X177150000Y-117000000D03*
D21*
X183650000Y-117000000D03*
X177150000Y-121500000D03*
X183650000Y-121500000D03*
%TD*%
D13*
%TO.C,H2*%
X146600000Y-102850000D03*
%TD*%
%TO.C,H1*%
X146600000Y-71200000D03*
%TD*%
D11*
%TO.C,J7*%
X196387800Y-63093600D03*
D12*
X193847800Y-63093600D03*
X191307800Y-63093600D03*
X188767800Y-63093600D03*
X186227800Y-63093600D03*
%TD*%
%TO.C,J2*%
X120192800Y-108813600D03*
X122732800Y-108813600D03*
X125272800Y-108813600D03*
X127812800Y-108813600D03*
D11*
X130352800Y-108813600D03*
%TD*%
D22*
%TO.C,R1*%
X178600000Y-97710000D03*
D23*
X178600000Y-90090000D03*
%TD*%
D21*
%TO.C,S2*%
X172050000Y-121500000D03*
X165550000Y-121500000D03*
X172050000Y-117000000D03*
D20*
X165550000Y-117000000D03*
%TD*%
D11*
%TO.C,J9*%
X229433200Y-63093600D03*
D12*
X226893200Y-63093600D03*
X224353200Y-63093600D03*
X221813200Y-63093600D03*
X219273200Y-63093600D03*
%TD*%
D22*
%TO.C,R2*%
X183388000Y-97688400D03*
D23*
X183388000Y-90068400D03*
%TD*%
D11*
%TO.C,J3*%
X130327400Y-63093600D03*
D12*
X127787400Y-63093600D03*
X125247400Y-63093600D03*
X122707400Y-63093600D03*
X120167400Y-63093600D03*
%TD*%
D11*
%TO.C,J4*%
X163372800Y-108813600D03*
D12*
X160832800Y-108813600D03*
X158292800Y-108813600D03*
X155752800Y-108813600D03*
X153212800Y-108813600D03*
%TD*%
M02*
